<?xml version="1.0" encoding="utf-8"?>
<!-- Generator: Adobe Illustrator 21.0.0, SVG Export Plug-In . SVG Version: 6.00 Build 0)  -->
<svg version="1.1" id="Layer_1" xmlns="http://www.w3.org/2000/svg" xmlns:xlink="http://www.w3.org/1999/xlink" x="0px" y="0px"
	 viewBox="0 0 966 618.6" style="enable-background:new 0 0 966 618.6;" xml:space="preserve">
<style type="text/css">
	.st0{fill:none;}
	.st1{fill:#E6E6E6;}
	.st2{fill:#3F3D56;}
	.st3{fill:#FF3352;}
	.st4{fill:#FF335F;}
	.st5{fill:#FFB9B9;}
	.st6{fill:#2F2E41;}
	.st7{fill:#FCCDD5;}
	.st8{fill:#FDE5E9;}
</style>
<title>instat_analysis</title>
<g>
	<title>background</title>
	<rect id="canvas_background" x="-1" y="-1" class="st0" width="582" height="402"/>
</g>
<g>
	<title>Layer 1</title>
	<path id="svg_1" class="st1" d="M560.6,177.5c-0.9,2.1-1.7,4.2-2.6,6.4l-2.1-0.8c0.8-2.2,1.7-4.3,2.6-6.4L560.6,177.5z"/>
	<rect id="svg_4" x="48" y="266.7" class="st2" width="550" height="350.8"/>
	<path id="svg_5" class="st1" d="M524.2,617.2c-0.3-0.4-6.5-10.8-8.6-32.4c-2-19.8-0.7-53.1,16.6-99.7c32.8-88.1-7.6-159.3-8-160
		l2-1.2c0.1,0.2,10.5,18.3,16.7,47.2c8.1,38.3,5.2,78.1-8.5,114.7c-32.7,88-8.4,129.6-8.1,130.1L524.2,617.2L524.2,617.2z"/>
	<circle id="svg_6" class="st3" cx="511.4" cy="305.1" r="14.9"/>
	<circle id="svg_7" class="st1" cx="558.5" cy="360.2" r="14.9"/>
	<circle id="svg_8" class="st3" cx="526.4" cy="397" r="14.9"/>
	<circle id="svg_9" class="st3" cx="565.4" cy="428.1" r="14.9"/>
	<circle id="svg_10" class="st1" cx="514.9" cy="476.3" r="14.9"/>
	<path id="svg_11" class="st1" d="M533.3,617.8c0,0-14.9-36.8,29.9-64.4L533.3,617.8z"/>
	<path id="svg_12" class="st1" d="M514.9,617.1c0,0-6.8-39.1-59.4-38.8L514.9,617.1z"/>
	<path id="svg_13" class="st3" d="M365.4,345c11.8,5.2,22.5,12.4,31.7,21.5l9.2-9.2c-10.8-10.6-23.6-19.1-37.5-24.9L365.4,345z"/>
	<path id="svg_14" class="st4" d="M222,409.8c4.4-13.7,11.5-26.4,21-37.2l-9.2-9.2c-11,12.5-19.3,27.2-24.3,43.1L222,409.8z"/>
	<path id="svg_15" class="st1" d="M417.6,370l-9.3,9.3c7.2,9.7,12.7,20.6,16.2,32.2l12.6-3.4C433,394.4,426.4,381.4,417.6,370z"/>
	<path id="svg_16" class="st3" d="M245.9,351.5l9.3,9.3c10.9-9.1,23.5-15.9,37.1-20.1l-3.4-12.6
		C273.1,332.8,258.4,340.8,245.9,351.5z"/>
	<path id="svg_17" class="st3" d="M217,442.1c0-5.3,0.4-10.5,1.2-15.7l-12.6-3.4c-2.6,16.2-1.9,32.8,2.2,48.8l12.6-3.4
		C218.1,459.8,217,451,217,442.1z"/>
	<path id="svg_18" class="st1" d="M349.1,544.9c-8.5,2.2-17.3,3.3-26.1,3.3c-3.3,0-6.5-0.2-9.7-0.4l-3.4,12.7
		c14.3,1.6,28.7,0.6,42.6-3L349.1,544.9z"/>
	<path id="svg_19" class="st3" d="M225.9,484.5l-12.7,3.4c6.1,14.6,15.1,27.9,26.4,39l9.2-9.2C239.1,508.3,231.3,497,225.9,484.5
		L225.9,484.5z"/>
	<path id="svg_20" class="st1" d="M440.7,424.8l-12.7,3.4c1.5,11.5,1.2,23.1-1.1,34.4l12.6,3.4C442.4,452.4,442.7,438.5,440.7,424.8
		L440.7,424.8z"/>
	<path id="svg_21" class="st3" d="M308.8,337.1c13.5-1.8,27.3-1,40.5,2.4l3.4-12.6c-15.4-3.9-31.5-4.8-47.2-2.4L308.8,337.1z"/>
	<path id="svg_22" class="st1" d="M296.5,544.8c-12.4-3.2-24.1-8.7-34.6-16.1l-9.3,9.3c12.2,9,25.9,15.5,40.5,19.3L296.5,544.8z"/>
	<path id="svg_23" class="st1" d="M403.3,529.9l-9.2-9.2c-8.5,7.7-18.3,14-28.8,18.6l3.4,12.7C381.4,546.7,393.1,539.3,403.3,529.9z
		"/>
	<path id="svg_24" class="st1" d="M422.4,478.9c-4,10.6-9.6,20.5-16.7,29.4l9.3,9.3c8.6-10.5,15.4-22.5,20-35.3L422.4,478.9
		L422.4,478.9z"/>
	<rect id="svg_25" x="60" y="286.6" class="st1" width="58" height="23"/>
	<rect id="svg_26" x="60" y="321.6" class="st3" width="58" height="23"/>
	<path id="svg_27" class="st5" d="M411,55.7c0,0,6.5,21.5,2.8,28s6.5,20.5,23.3,14s17.7-14,17.7-14s-6.5-10.3-8.4-31.7L411,55.7
		L411,55.7z"/>
	<path id="svg_28" class="st5" d="M325.6,266.2c0,0-33.6,16.8-18.7,39.2c8.7,13,25.2,38.3,37.6,57.2c10.3,15.8,18.3,33.1,23.5,51.3
		l2.4,8.1l9.3,11.2l19.6-22.4c0,0-28.9-53.2-28.9-63.5S347,304.4,347,304.4l23.3-14.9C370.4,289.5,344.2,259.6,325.6,266.2
		L325.6,266.2z"/>
	<path id="svg_29" class="st5" d="M434.8,324c0,0,0.9,26.1,1.9,36.4c0.8,8.5-6.7,32.2-4.1,58.6c1.6,17.1,1.4,34.3-0.6,51.3
		l-3.7,33.9l28,2.8l9.3-76.5c0,0,5.6-54.1,2.8-71.9l0.9-37.3C469.3,321.2,448.8,313.8,434.8,324L434.8,324z"/>
	<path id="svg_30" class="st6" d="M384.8,215.3c0,0-65.3,42-66.3,55.1c0,0,37.3-3.7,38.3,28.9c0,0,22.4-8.4,28-10.3
		s35.5-21.5,35.5-21.5s12.1,9.3,12.1,24.3s-0.9,41.1,0,42.9s22.4-25.2,40.1-1.9l12.1-64.4c0,0,3.7-39.2-3.7-42l-52.3-19.6
		L384.8,215.3L384.8,215.3z"/>
	<circle id="svg_31" class="st5" cx="424.5" cy="39.4" r="28"/>
	<path id="svg_32" class="st7" d="M417.5,88.4c0,0,31.6,8.3,35.9-7.5c0,0,38.8,7.5,45.3,32.7s-15.9,85.9-15.9,87.7
		s18.7,13.1,10.3,18.7s-15.9-0.9-12.1,6.5s10.3,9.3,4.7,11.2s-39.2-27.1-65.3-19.6s-39.2,1.9-39.2,1.9l-11.7-101.3
		c-0.9-7.9,2.2-15.7,8.3-20.8c5.8-4.8,13.6-10,21.1-11.4c14.9-2.8,15.6-4.3,15.6-4.3L417.5,88.4L417.5,88.4z"/>
	<path id="svg_33" class="st5" d="M387.6,251.7c0,0,8.4,47.6,19.6,41.1s-2.8-41.1-2.8-41.1L387.6,251.7L387.6,251.7z"/>
	<path id="svg_34" class="st5" d="M426.6,257.9c0,0-14.6,46.1-1.6,45.5s16.5-37.7,16.5-37.7L426.6,257.9L426.6,257.9z"/>
	<path id="svg_35" class="st6" d="M375,420.1c0,0-6.5-7.5-10.3,2.8s-14,23.3-14,23.3s-22.4,25.2-6.5,26.1s38.3-22.4,38.3-22.4
		l26.1-24.3c0,0-8.7-21.1-12.7-21.3S392.8,429.5,375,420.1L375,420.1z"/>
	<path id="svg_36" class="st6" d="M435.7,497.6c0,0-6.6,1.9-6.1-6c0,0-23.8,12.6-17.2,21.9c6.5,9.3,14,18.7,14,18.7
		s34.5,19.6,37.3,14.9s2.8-14,0.9-17.7s-11.2-10.3-8.4-15.9s-0.9-20.5-5.6-20.5S435.7,497.6,435.7,497.6L435.7,497.6z"/>
	<path id="svg_37" class="st6" d="M400.1,15.7c0,0,9-19.5,26.3-15s27,11.3,27.8,18s-0.4,16.9-0.4,16.9s-1.9-13.9-13.9-10.9
		s-30.8,0.8-30.8,0.8l-3,27c0,0-3.4-4.9-7.1-1.9S388.1,21.7,400.1,15.7L400.1,15.7z"/>
	<path id="svg_38" class="st8" d="M482.8,112.7c0,0-22.4,60.7-20.5,68.1s0,8.4-2.8,10.3s-10.3,21.5-10.3,21.5s-4.7,11.2-8.4,14
		s-3.7,10.3-3.7,10.3s-9.3,9.3-7.5,11.2s1.9,4.7-1.9,7.5s-7.5,6.5-5.6,7.5s14.9,11.2,18.7,10.3s-1.9-4.7,2.8-6.5s7.5-4.7,5.6-5.6
		s-7.5-0.9-1.9-2.8s25.2-14,31.7-28.9s37.8-105.3,18.9-118C498,111.4,490.3,101.5,482.8,112.7L482.8,112.7z"/>
	<path id="svg_39" class="st8" d="M379.2,102.4l-0.4,0.2c-7.2,3-12.4,9.3-14,16.9c-2,9.8-4,23.9-2.5,37.1
		c2.8,23.3,4.7,33.6,8.4,41.1s4.7,4.7,3.7,10.3s-5.6,0.9-0.9,8.4s7.5,5.6,5.6,9.3s-4.7,3.7-0.9,8.4s3.7,6.5,4.7,8.4
		s3.7,15.9,3.7,15.9s14.9-4.7,23.3-2.8c0,0-7.5-13.1-5.6-15.9s4.7-3.7,1.9-6.5s-7.5-1.9-2.8-4.7s-3.7-31.7-3.7-31.7L379.2,102.4
		L379.2,102.4z"/>
	<rect id="svg_40" y="616.6" class="st2" width="966" height="2"/>
</g>
</svg>
